<svg xmlns="http://www.w3.org/2000/svg" version="1.1" xmlns:xlink="http://www.w3.org/1999/xlink" viewBox="0 0 200 200" width="200" height="200"><metadata><rdf:RDF xmlns:rdf="http://www.w3.org/1999/02/22-rdf-syntax-ns#" xmlns:dc="http://purl.org/dc/elements/1.1/"><rdf:Description><dc:creator>RealFaviconGenerator</dc:creator><dc:source>https://realfavicongenerator.net</dc:source></rdf:Description></rdf:RDF></metadata><rect width="200" height="200" fill="url('#gradient')"></rect><defs><linearGradient id="gradient" gradientTransform="rotate(59 0.5 0.5)"><stop offset="0%" stop-color="#4f4f4f"></stop><stop offset="100%" stop-color="#000000"></stop></linearGradient></defs><g><g fill="#ad9f00" transform="matrix(6.220943245403677,0,0,6.220943245403677,17.3226469755935,144.23516249485152)" stroke="#000000" stroke-width="0.35"><path d="M6.85 0L1.07 0L1.07-14.22L6.18-14.22Q8.93-14.22 10.36-13.21Q11.79-12.21 11.79-10.29L11.79-10.29Q11.79-9.19 11.28-8.41Q10.77-7.63 9.79-7.26L9.79-7.26Q10.90-6.96 11.49-6.16Q12.09-5.36 12.09-4.21L12.09-4.21Q12.09-2.12 10.77-1.07Q9.44-0.02 6.85 0L6.85 0ZM6.90-6.04L4.50-6.04L4.50-2.64L6.75-2.64Q7.68-2.64 8.17-3.06Q8.67-3.49 8.67-4.26L8.67-4.26Q8.67-6.04 6.90-6.04L6.90-6.04ZM4.50-11.57L4.50-8.29L6.29-8.29Q7.41-8.30 7.89-8.70Q8.37-9.10 8.37-9.88L8.37-9.88Q8.37-10.78 7.85-11.18Q7.33-11.57 6.18-11.57L6.18-11.57L4.50-11.57ZM22.07-4.81L25.48-4.81Q25.41-3.33 24.68-2.19Q23.95-1.05 22.62-0.43Q21.30 0.20 19.60 0.20L19.60 0.20Q16.80 0.20 15.19-1.63Q13.57-3.46 13.57-6.79L13.57-6.79L13.57-7.49Q13.57-9.58 14.30-11.15Q15.03-12.71 16.40-13.57Q17.76-14.42 19.56-14.42L19.56-14.42Q22.15-14.42 23.72-13.06Q25.29-11.70 25.51-9.31L25.51-9.31L22.09-9.31Q22.05-10.61 21.44-11.17Q20.82-11.74 19.56-11.74L19.56-11.74Q18.28-11.74 17.69-10.78Q17.09-9.82 17.06-7.72L17.06-7.72L17.06-6.72Q17.06-4.44 17.63-3.47Q18.20-2.49 19.60-2.49L19.60-2.49Q20.78-2.49 21.41-3.05Q22.03-3.60 22.07-4.81L22.07-4.81Z"></path></g></g></svg>